<svg class="lds-spinner" width="200px"  height="200px"  xmlns="http://www.w3.org/2000/svg" xmlns:xlink="http://www.w3.org/1999/xlink" viewBox="0 0 100 100" preserveAspectRatio="xMidYMid" style="background: none;"><g transform="rotate(0 50 50)">
  <rect x="48.5" y="5" rx="10.67" ry="1.1" width="3" height="16" fill="#fdfdfd">
    <animate attributeName="opacity" values="1;0" times="0;1" dur="0.4s" begin="-0.3777777777777778s" repeatCount="indefinite"></animate>
  </rect>
</g><g transform="rotate(20 50 50)">
  <rect x="48.5" y="5" rx="10.67" ry="1.1" width="3" height="16" fill="#fdfdfd">
    <animate attributeName="opacity" values="1;0" times="0;1" dur="0.4s" begin="-0.35555555555555557s" repeatCount="indefinite"></animate>
  </rect>
</g><g transform="rotate(40 50 50)">
  <rect x="48.5" y="5" rx="10.67" ry="1.1" width="3" height="16" fill="#fdfdfd">
    <animate attributeName="opacity" values="1;0" times="0;1" dur="0.4s" begin="-0.3333333333333333s" repeatCount="indefinite"></animate>
  </rect>
</g><g transform="rotate(60 50 50)">
  <rect x="48.5" y="5" rx="10.67" ry="1.1" width="3" height="16" fill="#fdfdfd">
    <animate attributeName="opacity" values="1;0" times="0;1" dur="0.4s" begin="-0.3111111111111111s" repeatCount="indefinite"></animate>
  </rect>
</g><g transform="rotate(80 50 50)">
  <rect x="48.5" y="5" rx="10.67" ry="1.1" width="3" height="16" fill="#fdfdfd">
    <animate attributeName="opacity" values="1;0" times="0;1" dur="0.4s" begin="-0.2888888888888889s" repeatCount="indefinite"></animate>
  </rect>
</g><g transform="rotate(100 50 50)">
  <rect x="48.5" y="5" rx="10.67" ry="1.1" width="3" height="16" fill="#fdfdfd">
    <animate attributeName="opacity" values="1;0" times="0;1" dur="0.4s" begin="-0.2666666666666667s" repeatCount="indefinite"></animate>
  </rect>
</g><g transform="rotate(120 50 50)">
  <rect x="48.5" y="5" rx="10.67" ry="1.1" width="3" height="16" fill="#fdfdfd">
    <animate attributeName="opacity" values="1;0" times="0;1" dur="0.4s" begin="-0.24444444444444446s" repeatCount="indefinite"></animate>
  </rect>
</g><g transform="rotate(140 50 50)">
  <rect x="48.5" y="5" rx="10.67" ry="1.1" width="3" height="16" fill="#fdfdfd">
    <animate attributeName="opacity" values="1;0" times="0;1" dur="0.4s" begin="-0.2222222222222222s" repeatCount="indefinite"></animate>
  </rect>
</g><g transform="rotate(160 50 50)">
  <rect x="48.5" y="5" rx="10.67" ry="1.1" width="3" height="16" fill="#fdfdfd">
    <animate attributeName="opacity" values="1;0" times="0;1" dur="0.4s" begin="-0.2s" repeatCount="indefinite"></animate>
  </rect>
</g><g transform="rotate(180 50 50)">
  <rect x="48.5" y="5" rx="10.67" ry="1.1" width="3" height="16" fill="#fdfdfd">
    <animate attributeName="opacity" values="1;0" times="0;1" dur="0.4s" begin="-0.17777777777777778s" repeatCount="indefinite"></animate>
  </rect>
</g><g transform="rotate(200 50 50)">
  <rect x="48.5" y="5" rx="10.67" ry="1.1" width="3" height="16" fill="#fdfdfd">
    <animate attributeName="opacity" values="1;0" times="0;1" dur="0.4s" begin="-0.15555555555555556s" repeatCount="indefinite"></animate>
  </rect>
</g><g transform="rotate(220 50 50)">
  <rect x="48.5" y="5" rx="10.67" ry="1.1" width="3" height="16" fill="#fdfdfd">
    <animate attributeName="opacity" values="1;0" times="0;1" dur="0.4s" begin="-0.13333333333333336s" repeatCount="indefinite"></animate>
  </rect>
</g><g transform="rotate(240 50 50)">
  <rect x="48.5" y="5" rx="10.67" ry="1.1" width="3" height="16" fill="#fdfdfd">
    <animate attributeName="opacity" values="1;0" times="0;1" dur="0.4s" begin="-0.1111111111111111s" repeatCount="indefinite"></animate>
  </rect>
</g><g transform="rotate(260 50 50)">
  <rect x="48.5" y="5" rx="10.67" ry="1.1" width="3" height="16" fill="#fdfdfd">
    <animate attributeName="opacity" values="1;0" times="0;1" dur="0.4s" begin="-0.08888888888888889s" repeatCount="indefinite"></animate>
  </rect>
</g><g transform="rotate(280 50 50)">
  <rect x="48.5" y="5" rx="10.67" ry="1.1" width="3" height="16" fill="#fdfdfd">
    <animate attributeName="opacity" values="1;0" times="0;1" dur="0.4s" begin="-0.06666666666666668s" repeatCount="indefinite"></animate>
  </rect>
</g><g transform="rotate(300 50 50)">
  <rect x="48.5" y="5" rx="10.67" ry="1.1" width="3" height="16" fill="#fdfdfd">
    <animate attributeName="opacity" values="1;0" times="0;1" dur="0.4s" begin="-0.044444444444444446s" repeatCount="indefinite"></animate>
  </rect>
</g><g transform="rotate(320 50 50)">
  <rect x="48.5" y="5" rx="10.67" ry="1.1" width="3" height="16" fill="#fdfdfd">
    <animate attributeName="opacity" values="1;0" times="0;1" dur="0.4s" begin="-0.022222222222222223s" repeatCount="indefinite"></animate>
  </rect>
</g><g transform="rotate(340 50 50)">
  <rect x="48.5" y="5" rx="10.67" ry="1.1" width="3" height="16" fill="#fdfdfd">
    <animate attributeName="opacity" values="1;0" times="0;1" dur="0.4s" begin="0s" repeatCount="indefinite"></animate>
  </rect>
</g></svg>